<?xml version="1.0" encoding="UTF-8" standalone="no"?>
<svg
   viewBox="0 0 64 64"
   width="64"
   height="64"
   version="1.1"
   id="svg2"
   sodipodi:docname="favicon.svg"
   inkscape:version="1.4.2 (f4327f4, 2025-05-13)"
   xmlns:inkscape="http://www.inkscape.org/namespaces/inkscape"
   xmlns:sodipodi="http://sodipodi.sourceforge.net/DTD/sodipodi-0.dtd"
   xmlns="http://www.w3.org/2000/svg"
   xmlns:svg="http://www.w3.org/2000/svg">
  <defs
     id="defs2" />
  <sodipodi:namedview
     id="namedview2"
     pagecolor="#ffffff"
     bordercolor="#000000"
     borderopacity="0.25"
     inkscape:showpageshadow="2"
     inkscape:pageopacity="0.0"
     inkscape:pagecheckerboard="0"
     inkscape:deskcolor="#d1d1d1"
     inkscape:zoom="12.609375"
     inkscape:cx="32"
     inkscape:cy="32"
     inkscape:window-width="1920"
     inkscape:window-height="1009"
     inkscape:window-x="1912"
     inkscape:window-y="-8"
     inkscape:window-maximized="1"
     inkscape:current-layer="svg2" />
  <!-- Simplified shield background -->
  <path
     d="M32 8 L56 16 L56 36 Q56 48 32 56 Q8 48 8 36 L8 16 Z"
     fill="#B5B7E8"
     id="path1" />
  <!-- Simplified eye -->
  <path
     style="baseline-shift:baseline;display:inline;overflow:visible;opacity:1;vector-effect:none;fill:#0f5850;enable-background:accumulate;stop-color:#000000;stop-opacity:1"
     d="m 32,20.425781 c -5.752025,0 -10.971217,1.160454 -14.875,3.134766 -3.903783,1.974312 -7.8712321,4.978716 -7.8712321,8.557821 0,3.579106 3.9674491,6.426851 7.8712321,8.401163 3.903783,1.974312 9.122975,3.134766 14.875,3.134766 5.752025,0 10.971217,-1.160454 14.875,-3.134766 3.903783,-1.974312 8.029844,-4.901363 8.029844,-8.480469 0,-3.579105 -4.126061,-6.504203 -8.029844,-8.478515 C 42.971217,21.586235 37.752025,20.425781 32,20.425781 Z m 0,2.88086 c 5.358328,0 10.197053,1.116239 13.574219,2.824218 3.377166,1.707979 7.56005,3.868322 7.56005,5.908203 0,2.039882 -4.182884,4.202178 -7.56005,5.910157 C 42.197053,39.657198 37.358328,40.773437 32,40.773437 c -5.358328,0 -10.197053,-1.116239 -13.574219,-2.824218 -3.377166,-1.707979 -7.084214,-4.028887 -7.084214,-6.068769 0,-2.039881 3.707048,-4.041612 7.084214,-5.749591 C 21.802947,24.42288 26.641672,23.306641 32,23.306641 Z"
     id="ellipse1"
     sodipodi:nodetypes="ssssssssssssssssss" />
  <!-- Eye center circle -->
  <circle
     cx="32"
     cy="32"
     r="8"
     fill="none"
     stroke="#0F5850"
     stroke-width="2"
     id="circle1" />
  <!-- Simplified heart -->
  <path
     d="m 32,29.903346 q -2,-2 -4,-2 -2,0 -2,2 0,2 6,8 6,-6 6,-8 0,-2 -2,-2 -2,0 -4,2 z"
     fill="#0f5850"
     id="path2" />
</svg>
